# xmcd
#
# Track frame offsets:
# 150
# 122408
# 148614
# 165634
# 188229
# 207965
#
# Disc length: 4008 seconds
#
# Revision: 0
# Processed by: cddbd v1.4PL0 Copyright (c) Steve Scherf et al.
# Submitted via: Audion 3.0.2 (http://www.panic.com/audion/)
#
DISCID=4f0fa606
DTITLE=Various Artist - Music at the Crossroads
DYEAR=1900
DGENRE=
TTITLE0=Schoenberg: Verklarte Nacht
TTITLE1=Ravel: Jeaux d'Eau
TTITLE2=Debussy: Pour le Piano/Prelude
TTITLE3=Debussy: Pour le piano/Sarabande
TTITLE4=Debussy: Pour le piano/Toccata
TTITLE5=Mahler: Sym. No. 4 (3rd movement)
EXTD=
EXTT0=
EXTT1=
EXTT2=
EXTT3=
EXTT4=
EXTT5=
PLAYORDER=
